<svg width="55" height="50" viewBox="0 0 55 50" fill="none" xmlns="http://www.w3.org/2000/svg">
<g clip-path="url(#clip0_1328_453680)" filter="url(#filter0_d_1328_453680)">
<path fill-rule="evenodd" clip-rule="evenodd" d="M21.625 37.5C21.625 37.8978 21.7797 38.2794 22.0552 38.5607C22.3306 38.842 22.7042 39 23.0938 39H46.5938C46.9833 39 47.3569 38.842 47.6323 38.5607C47.9078 38.2794 48.0625 37.8978 48.0625 37.5V10.5C48.0625 10.1022 47.9078 9.72064 47.6323 9.43934C47.3569 9.15804 46.9833 9 46.5938 9H23.0938C22.7042 9 22.3306 9.15804 22.0552 9.43934C21.7797 9.72064 21.625 10.1022 21.625 10.5V16.5C21.625 16.8978 21.4703 17.2794 21.1948 17.5607C20.9194 17.842 20.5458 18 20.1562 18C19.7667 18 19.3931 17.842 19.1177 17.5607C18.8422 17.2794 18.6875 16.8978 18.6875 16.5V10.5C18.6875 9.30653 19.1517 8.16193 19.9781 7.31802C20.8044 6.47411 21.9251 6 23.0938 6H46.5938C47.7624 6 48.8831 6.47411 49.7094 7.31802C50.5358 8.16193 51 9.30653 51 10.5V37.5C51 38.6935 50.5358 39.8381 49.7094 40.682C48.8831 41.5259 47.7624 42 46.5938 42H23.0938C21.9251 42 20.8044 41.5259 19.9781 40.682C19.1517 39.8381 18.6875 38.6935 18.6875 37.5V31.5C18.6875 31.1022 18.8422 30.7206 19.1177 30.4393C19.3931 30.158 19.7667 30 20.1562 30C20.5458 30 20.9194 30.158 21.1948 30.4393C21.4703 30.7206 21.625 31.1022 21.625 31.5V37.5Z" fill="white"/>
<path fill-rule="evenodd" clip-rule="evenodd" d="M4.42906 25.0619C4.29228 24.9226 4.18376 24.7571 4.10972 24.5748C4.03567 24.3926 3.99756 24.1972 3.99756 23.9999C3.99756 23.8026 4.03567 23.6073 4.10972 23.425C4.18376 23.2428 4.29228 23.0773 4.42906 22.9379L13.2416 13.9379C13.3781 13.7985 13.5402 13.6878 13.7187 13.6124C13.8971 13.5369 14.0883 13.498 14.2814 13.498C14.4746 13.498 14.6658 13.5369 14.8442 13.6124C15.0226 13.6878 15.1848 13.7985 15.3213 13.9379C15.4579 14.0774 15.5662 14.243 15.6401 14.4252C15.714 14.6074 15.752 14.8027 15.752 14.9999C15.752 15.1972 15.714 15.3925 15.6401 15.5747C15.5662 15.7569 15.4579 15.9225 15.3213 16.0619L9.0145 22.4999H34.8439C35.2335 22.4999 35.6071 22.658 35.8825 22.9393C36.1579 23.2206 36.3127 23.6021 36.3127 23.9999C36.3127 24.3978 36.1579 24.7793 35.8825 25.0606C35.6071 25.3419 35.2335 25.4999 34.8439 25.4999H9.0145L15.3213 31.9379C15.4579 32.0774 15.5662 32.243 15.6401 32.4252C15.714 32.6074 15.752 32.8027 15.752 32.9999C15.752 33.1972 15.714 33.3925 15.6401 33.5747C15.5662 33.7569 15.4579 33.9225 15.3213 34.0619C15.1848 34.2014 15.0226 34.312 14.8442 34.3875C14.6658 34.463 14.4746 34.5018 14.2814 34.5018C14.0883 34.5018 13.8971 34.463 13.7187 34.3875C13.5402 34.312 13.3781 34.2014 13.2416 34.0619L4.42906 25.0619Z" fill="white"/>
</g>
<defs>
<filter id="filter0_d_1328_453680" x="0" y="0" width="55" height="56" filterUnits="userSpaceOnUse" color-interpolation-filters="sRGB">
<feFlood flood-opacity="0" result="BackgroundImageFix"/>
<feColorMatrix in="SourceAlpha" type="matrix" values="0 0 0 0 0 0 0 0 0 0 0 0 0 0 0 0 0 0 127 0" result="hardAlpha"/>
<feOffset dy="4"/>
<feGaussianBlur stdDeviation="2"/>
<feComposite in2="hardAlpha" operator="out"/>
<feColorMatrix type="matrix" values="0 0 0 0 0 0 0 0 0 0 0 0 0 0 0 0 0 0 0.25 0"/>
<feBlend mode="normal" in2="BackgroundImageFix" result="effect1_dropShadow_1328_453680"/>
<feBlend mode="normal" in="SourceGraphic" in2="effect1_dropShadow_1328_453680" result="shape"/>
</filter>
<clipPath id="clip0_1328_453680">
<rect width="47" height="48" fill="white" transform="translate(4)"/>
</clipPath>
</defs>
</svg>
